<?xml version="1.0" encoding="UTF-8"?>
<svg width="206px" height="23px" viewBox="0 0 206 23" version="1.1" xmlns="http://www.w3.org/2000/svg" xmlns:xlink="http://www.w3.org/1999/xlink">
    <!-- Generator: Sketch 47.1 (45422) - http://www.bohemiancoding.com/sketch -->
    <title>Group</title>
    <desc>Created with Sketch.</desc>
    <defs>
        <polygon id="path-1" points="0 0.717360292 0 21.919976 9.85878036 21.919976 9.85878036 0.717360292"></polygon>
        <polygon id="path-3" points="0.186413115 22.5136612 9.61995878 22.5136612 9.61995878 0.130204008 0.186413115 0.130204008"></polygon>
    </defs>
    <g id="Page-1" stroke="none" stroke-width="1" fill="none" fill-rule="evenodd">
        <g id="Home-(default)" transform="translate(-1133.000000, -66.000000)">
            <g id="Group" transform="translate(1133.000000, 66.000000)">
                <g id="workyard-green-svg.52af72d4">
                    <path d="M16.27719,0.00227096816 C16.27719,0.00227096816 16.0549432,0 15.7828689,0 L11.3932969,0 L10.897394,0 L10.896603,0.00227096816 C10.896603,0.00302795755 10.8538937,0.213471008 10.8016934,0.46933342 L9.03953731,9.04753716 C8.987337,9.30264258 8.99603704,9.71974373 9.05931016,9.97257819 L11.4715974,19.6484165 C11.5348705,19.9020079 11.6400621,19.9020079 11.704917,19.6491736 L13.531928,12.5758647 C13.5975738,12.3230302 13.7043472,12.3230302 13.7699931,12.5758647 L15.9062514,20.8474877 C15.9718973,21.1010791 16.029634,21.3259051 16.0359613,21.3478577 C16.0414977,21.3698104 16.26849,21.3879781 16.5413552,21.3879781 L20.9926184,21.3879781 C21.2654837,21.3879781 21.437112,21.179806 21.3754207,20.9262146 L16.3887089,0.465548473 C16.3270175,0.211957028 16.2763991,0.00302795755 16.27719,0.00227096816" id="Fill-1" fill="#FFFFFF" fill-rule="nonzero"></path>
                    <path d="M26.6576107,0 L22.5529551,0 C22.3020788,0 22.0548278,0.208907537 22.0018973,0.464743578 L20.2994188,8.73021569 C20.2464882,8.98529482 20.2508387,9.40235299 20.3081196,9.65743211 L22.4115654,18.9454915 C22.4695713,19.1998137 22.5652814,19.2005706 22.6254627,18.9462484 L27.003472,0.460959022 C27.0636533,0.207393714 26.9077619,0 26.6576107,0" id="Fill-3" fill="#FFFFFF" fill-rule="nonzero"></path>
                    <g id="Group-7">
                        <g id="Fill-5-Clipped">
                            <mask id="mask-2" fill="white">
                                <use xlink:href="#path-1"></use>
                            </mask>
                            <g id="path-1"></g>
                            <path d="M4.17598665,0.717360292 L0.357991335,0.717360292 C0.108330913,0.717360292 -0.0472545667,0.922985063 0.0128086651,1.17438762 L4.84970796,21.4629486 C4.9097712,21.7143511 5.16304989,21.919976 5.4127103,21.919976 L9.50497025,21.919976 C9.75463068,21.919976 9.9080452,21.7151016 9.8443637,21.4644495 L4.74477822,1.17363716 C4.68182038,0.922234609 4.42564707,0.717360292 4.17598665,0.717360292" id="Fill-5" fill="#FFFFFF" fill-rule="nonzero" mask="url(#mask-2)"></path>
                        </g>
                    </g>
                    <path d="M132.512967,0 L126.864702,0 C126.586931,0 126.250216,0.193075231 126.116982,0.429142923 L122.800696,6.28940612 C122.666656,6.52547381 122.665849,6.91162428 122.797466,7.14847364 L125.617965,12.204387 C125.75039,12.4412364 125.967601,12.4420181 126.10164,12.2059504 L132.775395,0.429142923 C132.909435,0.193075231 132.790737,0 132.512967,0" id="Fill-8" fill="#FFFFFF" fill-rule="nonzero"></path>
                    <path d="M122.076927,8.63497794 C121.95454,8.40561015 121.854538,8.21863377 121.854538,8.21863377 C121.854538,8.21863377 121.753046,8.03241439 121.629911,7.80380359 L117.632134,0.415587174 C117.508252,0.186976378 117.197057,0 116.94034,0 L111.736588,0 C111.479124,0 111.370169,0.186976378 111.493304,0.415587174 L118.576914,13.5311853 C118.700049,13.7597961 118.803781,13.9467725 118.806765,13.9467725 C118.810497,13.9467725 118.812736,14.1602435 118.812736,14.4206478 L118.812736,20.9141028 C118.812736,21.1745071 119.023184,21.3879781 119.279902,21.3879781 L124.483653,21.3879781 C124.741117,21.3879781 124.95082,21.1745071 124.95082,20.9141028 L124.95082,14.5069446 C124.95082,14.2465402 124.85082,13.8453359 124.729177,13.6159682 L122.076927,8.63497794 Z" id="Fill-10" fill="#FFFFFF" fill-rule="nonzero"></path>
                    <path d="M146.929131,0.448153579 C146.841566,0.201366304 146.607806,0 146.409071,0 L145.569971,0 L141.057712,0 C140.794256,0 140.649583,0.20212332 140.734864,0.449667611 L143.880349,9.54370298 C143.965629,9.79049026 144.107256,10.1947369 144.195582,10.4407672 L144.927321,12.4998511 C145.015646,12.7466385 144.871736,12.9480047 144.609041,12.9480047 L143.846084,12.9480047 C143.583389,12.9480047 143.297852,13.1508851 143.212571,13.3976723 L141.506959,18.3213056 C141.420916,18.5680929 141.566351,18.7702161 141.829045,18.7702161 L146.67938,18.7702161 C146.942075,18.7702161 147.229135,18.9723395 147.3167,19.2183698 L147.928894,20.9398246 C148.016458,21.1866118 148.303519,21.3879781 148.566214,21.3879781 L153.87341,21.3879781 C154.136866,21.3879781 154.280016,21.1858548 154.193212,20.9398246 L146.929131,0.448153579 Z" id="Fill-12" fill="#FFFFFF" fill-rule="nonzero"></path>
                    <path d="M142.895968,10.30348 L140.030568,2.43420158 C139.942207,2.1905453 139.796255,2.1905453 139.706317,2.43345645 L132.85681,20.9461183 C132.766872,21.1890294 132.91598,21.3879781 133.188162,21.3879781 L138.637314,21.3879781 C138.909496,21.3879781 139.205345,21.1890294 139.295283,20.9461183 L142.894391,11.1879448 C142.98354,10.9442885 142.984329,10.5471363 142.895968,10.30348" id="Fill-14" fill="#FFFFFF" fill-rule="nonzero"></path>
                    <path d="M92.3060109,14.3948107 C92.3060109,14.6536831 92.4483817,14.7114605 92.6223088,14.5231213 L105.716751,0.342912243 C105.890678,0.154573133 105.825363,0 105.572178,0 L98.6950828,0 C98.4418977,0 98.0918416,0.153822779 97.9171807,0.342161889 L92.6230428,6.04936216 C92.4483817,6.23770126 92.3060109,6.60387452 92.3060109,6.862747 L92.3060109,14.3948107 Z" id="Fill-16" fill="#FFFFFF" fill-rule="nonzero"></path>
                    <path d="M90.0546448,0.475406162 C90.0546448,0.214235579 89.8475402,0 89.5950629,0 L84.8858115,0 C84.6326023,0 84.4262295,0.214235579 84.4262295,0.475406162 L84.4262295,20.913329 C84.4262295,21.1744996 84.6326023,21.3879781 84.8858115,21.3879781 L89.5950629,21.3879781 C89.8475402,21.3879781 90.0546448,21.1744996 90.0546448,20.913329 L90.0546448,0.475406162 Z" id="Fill-18" fill="#FFFFFF" fill-rule="nonzero"></path>
                    <path d="M93.5655343,16.055655 C93.3864527,16.2438193 93.3872082,16.5519291 93.5670456,16.7393439 L97.2899797,20.6563112 C97.469817,20.8437258 97.9231882,21.3879781 98.4846131,21.3879781 L105.565517,21.3879781 C105.826206,21.3879781 105.8927,21.2342981 105.713619,21.0461337 L97.5710698,12.5232627 C97.3912326,12.3350983 97.0980525,12.3358479 96.9189708,12.5240124 L93.5655343,16.055655 Z" id="Fill-20" fill="#FFFFFF" fill-rule="nonzero"></path>
                    <path d="M37.4058605,10.5815642 C37.4058605,8.1726485 39.2997725,6.21214895 41.6502732,6.07022599 L41.6502732,0 L41.2697826,0 C35.9064165,0 31.5191257,4.40791563 31.5191257,9.78739957 L31.5191257,12.7262616 C31.5191257,18.1057456 35.9064165,22.5136612 41.2697826,22.5136612 L41.6502732,22.5136612 L41.6502732,16.4434352 C39.2997725,16.3022671 37.4058605,14.3410127 37.4058605,11.932097 L37.4058605,10.5815642 Z" id="Fill-22" fill="#FFFFFF" fill-rule="nonzero"></path>
                    <g id="Group-26" transform="translate(42.775956, 0.000000)">
                        <g id="Fill-24-Clipped">
                            <mask id="mask-4" fill="white">
                                <use xlink:href="#path-3"></use>
                            </mask>
                            <g id="path-3"></g>
                            <path d="M9.61995878,9.84785063 L9.61995878,12.7956393 C9.61995878,18.1403825 5.55953958,22.5140364 0.561265574,22.5140364 L0.186413115,22.5140364 L0.186413115,16.4886303 C2.37329368,16.3265319 4.12236393,14.3828525 4.12236393,11.985898 L4.12236393,10.657592 C4.12236393,8.26063752 2.37329368,6.31695811 0.186413115,6.15485975 L0.186413115,0.130204008 L0.561265574,0.130204008 C5.55953958,0.130204008 9.61995878,4.50310746 9.61995878,9.84785063" id="Fill-24" fill="#FFFFFF" fill-rule="nonzero" mask="url(#mask-4)"></path>
                        </g>
                    </g>
                    <path d="M189.680883,0 L185.171576,0 C184.864017,0 184.612022,0.24375921 184.612022,0.541266569 L184.612022,20.8467116 C184.612022,21.1442189 184.864017,21.3879781 185.171576,21.3879781 L189.680883,21.3879781 C189.988442,21.3879781 190.240437,21.1442189 190.240437,20.8467116 L190.240437,0.541266569 C190.240437,0.24375921 189.988442,0 189.680883,0" id="Fill-27" fill="#FFFFFF" fill-rule="nonzero"></path>
                    <path d="M205.780848,4.25580204 L201.791965,0.220205974 C201.524194,0.0976170811 201.341692,0 200.7695,0 C200.7695,0 192.966759,0.00832393715 192.960775,0.00832393715 C192.513494,0.00832393715 192.491803,0.241394177 192.491803,0.538785749 L192.491803,4.79988485 C192.491803,5.09727642 192.690014,5.34094076 192.932353,5.34094076 C193.174693,5.34094076 193.868802,5.34018404 194.16275,5.34018404 L197.72679,5.33110338 C198.021487,5.33110338 198.481484,5.43023391 198.749255,5.5528228 L200.433666,7.25620303 C200.554836,7.52786607 200.653566,7.99324982 200.653566,8.2906414 L200.653566,13.0988502 C200.653566,13.3962418 200.554836,13.8623822 200.433666,14.1332885 L198.749255,15.8374256 C198.481484,15.9600143 198.021487,16.0583882 197.72679,16.0576314 L194.16275,16.0402269 C193.868802,16.0387134 193.470138,16.0379568 193.277163,16.0379568 C192.715444,16.0379568 192.491803,16.2816211 192.491803,16.5790126 L192.491803,20.8544895 C192.491803,21.151881 192.731899,21.3879781 193.026596,21.3879781 L200.907874,21.3879781 C201.201823,21.3864647 201.661819,21.2774967 201.930338,21.1556646 L205.79057,17.1851466 C205.905757,16.9112134 206,16.7364107 206,16.1461679 L206,5.29024042 C206,4.74313073 205.901269,4.52746508 205.780848,4.25580204" id="Fill-29" fill="#FFFFFF" fill-rule="nonzero"></path>
                    <path d="M178.963136,5.08981459 C178.938278,4.71559694 178.868092,4.4868242 178.769392,4.26032405 L175.273978,0.220439953 C175.011511,0.097720804 174.833853,0 174.274557,0 C174.274557,0 168.191028,0.00833278174 168.185179,0.00833278174 C167.747978,0.00833278174 167.726776,0.241650671 167.726776,0.539358236 L167.726776,4.80498496 C167.726776,5.10269253 167.920518,5.34661578 168.157397,5.34661578 C168.394276,5.34661578 169.072741,5.34585825 169.360066,5.34510072 L171.893345,5.33676794 C172.181401,5.33601041 172.631031,5.43600379 172.892767,5.55796542 C172.892767,5.55796542 174.140033,6.39351617 174.140033,6.85030411 C174.140033,7.30709206 172.892767,8.14188528 172.892767,8.14188528 C172.631031,8.26460444 172.181401,8.36308276 171.893345,8.36232523 L169.360066,8.34490215 C169.072741,8.3433871 168.683062,8.34262957 168.494437,8.34262957 C167.945377,8.34262957 167.726776,8.58579529 167.726776,8.88426038 L167.726776,12.9741412 C167.726776,13.2726062 167.961461,13.5081967 168.249516,13.5081967 L174.409811,13.5081967 C174.697135,13.5074392 175.146765,13.397598 175.409232,13.2756363 L178.778897,9.30089947 C178.891487,9.0266752 178.983607,8.85168679 178.983607,8.26081681 L178.983607,5.08829954 L178.963136,5.08981459 Z" id="Fill-31" fill="#FFFFFF" fill-rule="nonzero"></path>
                    <path d="M168.227679,15.7595628 C167.952501,15.7595628 167.726776,15.9784604 167.726776,16.2457374 C167.726776,16.5130144 167.857585,16.9135334 168.017906,17.1363964 L171.35673,22.1083836 C171.516254,22.3312466 171.872788,22.5136612 172.148764,22.5136612 L178.696401,22.5136612 C178.971579,22.5136612 179.065698,22.3312466 178.905377,22.1083836 L174.867042,16.1648405 C174.706721,15.9419774 174.350187,15.7595628 174.075009,15.7595628 L168.227679,15.7595628 Z" id="Fill-33" fill="#FFFFFF" fill-rule="nonzero"></path>
                    <path d="M166.601093,0.475406162 C166.601093,0.214235579 166.393989,0 166.141511,0 L161.432259,0 C161.17905,0 160.972678,0.214235579 160.972678,0.475406162 L160.972678,20.913329 C160.972678,21.1744996 161.17905,21.3879781 161.432259,21.3879781 L166.141511,21.3879781 C166.393989,21.3879781 166.601093,21.1744996 166.601093,20.913329 L166.601093,0.475406162 Z" id="Fill-35" fill="#FFFFFF" fill-rule="nonzero"></path>
                    <path d="M77.6516602,5.08981459 C77.6268026,4.71559694 77.5566165,4.4868242 77.4579173,4.26032405 L73.9625021,0.220439953 C73.7000352,0.097720804 73.5223766,0 72.9630809,0 C72.9630809,0 66.8795525,0.00833278174 66.8737037,0.00833278174 C66.4365026,0.00833278174 66.4153005,0.241650671 66.4153005,0.539358236 L66.4153005,4.80498496 C66.4153005,5.10269253 66.6090435,5.34661578 66.8459217,5.34661578 C67.0827999,5.34661578 67.7612657,5.34585825 68.0485901,5.34510072 L70.5818705,5.33676794 C70.869926,5.33601041 71.3195559,5.43600379 71.5812917,5.55796542 C71.5812917,5.55796542 72.8285575,6.39351617 72.8285575,6.85030411 C72.8285575,7.30709206 71.5812917,8.14188528 71.5812917,8.14188528 C71.3195559,8.26460444 70.869926,8.36308276 70.5818705,8.36232523 L68.0485901,8.34490215 C67.7612657,8.3433871 67.3715864,8.34262957 67.1829612,8.34262957 C66.6339011,8.34262957 66.4153005,8.58579529 66.4153005,8.88426038 L66.4153005,12.9741412 C66.4153005,13.2726062 66.6499854,13.5081967 66.938041,13.5081967 L73.0983354,13.5081967 C73.3856598,13.5074392 73.8352897,13.397598 74.0977566,13.2756363 L77.4674216,9.30089947 C77.5800119,9.0266752 77.6721311,8.85168679 77.6721311,8.26081681 L77.6721311,5.08829954 L77.6516602,5.08981459 Z" id="Fill-37" fill="#FFFFFF" fill-rule="nonzero"></path>
                    <path d="M66.916204,15.7595628 C66.6410261,15.7595628 66.4153005,15.9784604 66.4153005,16.2457374 C66.4153005,16.5130144 66.5461098,16.9135334 66.7064307,17.1363964 L70.045255,22.1083836 C70.2047784,22.3312466 70.5613132,22.5136612 70.8372886,22.5136612 L77.3849256,22.5136612 C77.6601034,22.5136612 77.7542223,22.3312466 77.5939012,22.1083836 L73.555567,16.1648405 C73.3952459,15.9419774 73.0387113,15.7595628 72.7635334,15.7595628 L66.916204,15.7595628 Z" id="Fill-39" fill="#FFFFFF" fill-rule="nonzero"></path>
                    <path d="M64.1639344,0.475406162 C64.1639344,0.214235579 63.9568298,0 63.7043525,0 L58.9951011,0 C58.741892,0 58.5355191,0.214235579 58.5355191,0.475406162 L58.5355191,20.913329 C58.5355191,21.1744996 58.741892,21.3879781 58.9951011,21.3879781 L63.7043525,21.3879781 C63.9568298,21.3879781 64.1639344,21.1744996 64.1639344,20.913329 L64.1639344,0.475406162 Z" id="Fill-41" fill="#FFFFFF" fill-rule="nonzero"></path>
                </g>
            </g>
        </g>
    </g>
</svg>